<svg width="63" height="68" viewBox="0 0 63 68" fill="none" xmlns="http://www.w3.org/2000/svg">
<mask id="mask0_32_8426" style="mask-type:alpha" maskUnits="userSpaceOnUse" x="0" y="0" width="63" height="68">
<path d="M31.5 27C38.9558 27 45 20.9558 45 13.5C45 6.04416 38.9558 0 31.5 0C24.0442 0 18 6.04416 18 13.5C18 20.9558 24.0442 27 31.5 27Z" fill="#0C1634"/>
<path d="M0 67.5C0 50.103 14.103 36 31.5 36C48.897 36 63 50.103 63 67.5H0Z" fill="#0C1634"/>
</mask>
<g mask="url(#mask0_32_8426)">
<path d="M69 29.5C69 50.2107 52.2107 67 31.5 67C10.7893 67 -6 50.2107 -6 29.5C-6 8.78932 10.7893 -8 31.5 -8C52.2107 -8 69 8.78932 69 29.5Z" fill="#F7F8FF"/>
</g>
</svg>
