<svg width="56" height="64" viewBox="0 0 56 64" fill="none" xmlns="http://www.w3.org/2000/svg">
<path fill-rule="evenodd" clip-rule="evenodd" d="M0 60C-9.65646e-08 57.7909 1.79086 56 4 56H52C54.2091 56 56 57.7909 56 60C56 62.2091 54.2091 64 52 64H4C1.79086 64 9.65645e-08 62.2091 0 60ZM13.1716 18.8284C11.6095 17.2663 11.6095 14.7337 13.1716 13.1716L25.1716 1.17157C25.9217 0.421429 26.9391 4.63719e-08 28 0C29.0609 -4.63719e-08 30.0783 0.421429 30.8284 1.17157L42.8284 13.1716C44.3905 14.7337 44.3905 17.2663 42.8284 18.8284C41.2663 20.3905 38.7337 20.3905 37.1716 18.8284L32 13.6569L32 44C32 46.2091 30.2091 48 28 48C25.7909 48 24 46.2091 24 44L24 13.6569L18.8284 18.8284C17.2663 20.3905 14.7337 20.3905 13.1716 18.8284Z" fill="#B7BFD7"/>
</svg>
